<?xml version="1.0" encoding="utf-8"?>
<!-- Generator: Adobe Illustrator 23.0.2, SVG Export Plug-In . SVG Version: 6.00 Build 0)  -->
<svg version="1.1" id="Calque_1" xmlns="http://www.w3.org/2000/svg" xmlns:xlink="http://www.w3.org/1999/xlink" x="0px" y="0px"
	 viewBox="0 0 1000 450.2" style="enable-background:new 0 0 1000 450.2;" xml:space="preserve">
<style type="text/css">
	.st0{fill:url(#SVGID_1_);}
	.st1{fill:url(#SVGID_2_);}
	.st2{fill:#CBCBCA;}
	.st3{fill:url(#SVGID_3_);}
	.st4{fill:url(#SVGID_4_);}
	.st5{fill:url(#SVGID_5_);}
	.st6{fill:url(#SVGID_6_);}
	.st7{fill:url(#SVGID_7_);}
	.st8{fill:url(#SVGID_8_);}
	.st9{fill:url(#SVGID_9_);}
	.st10{fill:url(#SVGID_10_);}
	.st11{fill:url(#SVGID_11_);}
	.st12{fill:url(#SVGID_12_);}
	.st13{fill:url(#SVGID_13_);}
	.st14{fill:url(#SVGID_14_);}
</style>
<g>
	<g>
		<g>
			
				<linearGradient id="SVGID_1_" gradientUnits="userSpaceOnUse" x1="-100.0826" y1="-1821.4828" x2="-29.8046" y2="-1821.4828" gradientTransform="matrix(0.2623 0.965 0.965 -0.2623 1872.8274 -200.9565)">
				<stop  offset="0" style="stop-color:#B0D06E"/>
				<stop  offset="1" style="stop-color:#72B8E3"/>
			</linearGradient>
			<path class="st0" d="M71.4,249.7L57,197c-1.1-4.2,1.3-8.5,5.5-9.6l52.7-14.3c4.2-1.1,8.5,1.3,9.6,5.5l14.3,52.7
				c1.1,4.2-1.3,8.5-5.5,9.6L81,255.2C76.8,256.3,72.5,253.9,71.4,249.7z"/>
			
				<linearGradient id="SVGID_2_" gradientUnits="userSpaceOnUse" x1="1362.8414" y1="-1380.0223" x2="1498.5438" y2="-1380.0223" gradientTransform="matrix(-0.7384 0.6744 0.6744 0.7384 2236.3103 1.2493)">
				<stop  offset="0" style="stop-color:#F69B31"/>
				<stop  offset="1" style="stop-color:#D461A1"/>
			</linearGradient>
			<path class="st1" d="M162.6-65.7l81.7-74.6c5.1-4.7,13-4.3,17.7,0.8l74.6,81.7c4.7,5.1,4.3,13-0.8,17.7l-81.7,74.6
				c-5.1,4.7-13,4.3-17.7-0.8L161.8-48C157.2-53.2,157.5-61.1,162.6-65.7z"/>
			<path class="st2" d="M564.5,206.6l75-81.3c4.7-5.1,12.6-5.4,17.7-0.7l81.3,75c5.1,4.7,5.4,12.6,0.7,17.7l-75,81.3
				c-4.7,5.1-12.6,5.4-17.7,0.7l-81.3-75C560.1,219.6,559.8,211.7,564.5,206.6z"/>
			
				<linearGradient id="SVGID_3_" gradientUnits="userSpaceOnUse" x1="1332.3381" y1="-1029.7069" x2="1452.1196" y2="-1029.7069" gradientTransform="matrix(-0.6481 0.7616 0.7616 0.6481 2093.0747 -120.8055)">
				<stop  offset="0" style="stop-color:#B0D06E"/>
				<stop  offset="1" style="stop-color:#72B8E3"/>
			</linearGradient>
			<path class="st3" d="M330.8,268.7l60.4-70.9c4.8-5.6,13.2-6.3,18.8-1.5l70.9,60.4c5.6,4.8,6.3,13.2,1.5,18.8L422,346.3
				c-4.8,5.6-13.2,6.3-18.8,1.5l-70.9-60.4C326.7,282.7,326,274.3,330.8,268.7z"/>
			
				<linearGradient id="SVGID_4_" gradientUnits="userSpaceOnUse" x1="1395.12" y1="-1323.1532" x2="1736.6844" y2="-1323.1532" gradientTransform="matrix(-0.6481 0.7616 0.7616 0.6481 2093.0747 -120.8055)">
				<stop  offset="0" style="stop-color:#B0D06E"/>
				<stop  offset="1" style="stop-color:#72B8E3"/>
			</linearGradient>
			<path class="st4" d="M-156.6,217.7L37.5-10.5c7.5-8.8,20.8-9.9,29.6-2.4l228.1,194.2c8.8,7.5,9.9,20.8,2.4,29.6L103.5,439
				c-7.5,8.8-20.8,9.9-29.6,2.4l-228.1-194.2C-163.1,239.8-164.1,226.5-156.6,217.7z"/>
			
				<linearGradient id="SVGID_5_" gradientUnits="userSpaceOnUse" x1="1026.1552" y1="900.5219" x2="1367.7197" y2="900.5219" gradientTransform="matrix(-0.7616 -0.6481 -0.6481 0.7616 2438.4888 428.3706)">
				<stop  offset="0" style="stop-color:#B0D06E"/>
				<stop  offset="1" style="stop-color:#72B8E3"/>
			</linearGradient>
			<path class="st5" d="M939.9,111.3L1168,305.5c8.8,7.5,9.9,20.8,2.4,29.6L976.2,563.2c-7.5,8.8-20.8,9.9-29.6,2.4L718.5,371.5
				c-8.8-7.5-9.9-20.8-2.4-29.6l194.2-228.1C917.8,104.9,931,103.8,939.9,111.3z"/>
			
				<linearGradient id="SVGID_6_" gradientUnits="userSpaceOnUse" x1="2153.3306" y1="-450.8057" x2="2289.011" y2="-450.8057" gradientTransform="matrix(-0.9975 7.110432e-02 7.110432e-02 0.9975 2242.7722 373.5439)">
				<stop  offset="0" style="stop-color:#F69B31"/>
				<stop  offset="1" style="stop-color:#D461A1"/>
			</linearGradient>
			<path class="st6" d="M-64.9,18.1l110.3-7.9c6.9-0.5,12.9,4.7,13.4,11.6l7.9,110.3c0.5,6.9-4.7,12.9-11.6,13.4l-110.3,7.9
				c-6.9,0.5-12.9-4.7-13.4-11.6l-7.9-110.3C-77,24.6-71.8,18.6-64.9,18.1z"/>
			
				<linearGradient id="SVGID_7_" gradientUnits="userSpaceOnUse" x1="-174.3607" y1="-1531.6676" x2="-104.0848" y2="-1531.6676" gradientTransform="matrix(0.2623 0.965 0.965 -0.2623 1872.8274 -200.9565)">
				<stop  offset="0" style="stop-color:#B0D06E"/>
				<stop  offset="1" style="stop-color:#72B8E3"/>
			</linearGradient>
			<path class="st7" d="M331.5,102l-14.3-52.7c-1.1-4.2,1.3-8.5,5.5-9.6l52.7-14.3c4.2-1.1,8.5,1.3,9.6,5.5l14.3,52.7
				c1.1,4.2-1.3,8.5-5.5,9.6l-52.7,14.3C337,108.7,332.6,106.2,331.5,102z"/>
			
				<linearGradient id="SVGID_8_" gradientUnits="userSpaceOnUse" x1="-152.8162" y1="-1633.8922" x2="-115.967" y2="-1633.8922" gradientTransform="matrix(0.2623 0.965 0.965 -0.2623 1872.8274 -200.9565)">
				<stop  offset="0" style="stop-color:#F69B31"/>
				<stop  offset="1" style="stop-color:#D461A1"/>
			</linearGradient>
			<path class="st8" d="M247.2,117.7l-8.2-30c-0.4-1.5,0.5-3.1,2-3.5l30-8.2c1.5-0.4,3.1,0.5,3.5,2l8.2,30c0.4,1.5-0.5,3.1-2,3.5
				l-30,8.2C249.2,120.2,247.6,119.3,247.2,117.7z"/>
			
				<linearGradient id="SVGID_9_" gradientUnits="userSpaceOnUse" x1="-495.1432" y1="-1476.6855" x2="-458.3146" y2="-1476.6855" gradientTransform="matrix(0.5542 0.8324 0.8324 -0.5542 1724.0017 -194.2668)">
				<stop  offset="0" style="stop-color:#B0D06E"/>
				<stop  offset="1" style="stop-color:#72B8E3"/>
			</linearGradient>
			<path class="st9" d="M223.9,250.5l-17.2-25.9c-0.9-1.3-0.5-3.1,0.8-4l25.9-17.2c1.3-0.9,3.1-0.5,4,0.8l17.2,25.9
				c0.9,1.3,0.5,3.1-0.8,4l-25.9,17.2C226.6,252.1,224.8,251.8,223.9,250.5z"/>
			
				<linearGradient id="SVGID_10_" gradientUnits="userSpaceOnUse" x1="1223.5791" y1="-1322.6195" x2="1282.1796" y2="-1322.6195" gradientTransform="matrix(-0.5732 0.8194 0.8194 0.5732 2214.314 -82.0184)">
				<stop  offset="0" style="stop-color:#F69B31"/>
				<stop  offset="1" style="stop-color:#D461A1"/>
			</linearGradient>
			<path class="st10" d="M373.2,191.4l30.3-43.3c0.9-1.3,2.7-1.6,4-0.7l43.3,30.3c1.3,0.9,1.6,2.7,0.7,4L421.2,225
				c-0.9,1.3-2.7,1.6-4,0.7l-43.3-30.3C372.6,194.5,372.3,192.7,373.2,191.4z"/>
			
				<linearGradient id="SVGID_11_" gradientUnits="userSpaceOnUse" x1="-13.1821" y1="-1403.1626" x2="23.6628" y2="-1403.1626" gradientTransform="matrix(0.2623 0.965 0.965 -0.2623 1872.8274 -200.9565)">
				<stop  offset="0" style="stop-color:#B0D06E"/>
				<stop  offset="1" style="stop-color:#72B8E3"/>
			</linearGradient>
			<path class="st11" d="M506.5,192l-8.2-30c-0.4-1.5,0.5-3.1,2-3.5l30-8.2c1.5-0.4,3.1,0.5,3.5,2l8.2,30c0.4,1.5-0.5,3.1-2,3.5
				l-30,8.2C508.5,194.4,506.9,193.5,506.5,192z"/>
			
				<linearGradient id="SVGID_12_" gradientUnits="userSpaceOnUse" x1="1265.6147" y1="-1180.4176" x2="1302.4434" y2="-1180.4176" gradientTransform="matrix(-0.5 0.866 0.866 0.5 2294.6379 -143.2655)">
				<stop  offset="0" style="stop-color:#F69B31"/>
				<stop  offset="1" style="stop-color:#D461A1"/>
			</linearGradient>
			<path class="st12" d="M606.7,382.8l15.5-26.9c0.8-1.4,2.5-1.8,3.9-1l26.9,15.5c1.4,0.8,1.8,2.5,1,3.9l-15.5,26.9
				c-0.8,1.4-2.5,1.8-3.9,1l-26.9-15.5C606.4,386,605.9,384.2,606.7,382.8z"/>
			
				<linearGradient id="SVGID_13_" gradientUnits="userSpaceOnUse" x1="112.6967" y1="-1574.0621" x2="149.5416" y2="-1574.0621" gradientTransform="matrix(0.2623 0.965 0.965 -0.2623 1872.8274 -200.9565)">
				<stop  offset="0" style="stop-color:#B0D06E"/>
				<stop  offset="1" style="stop-color:#72B8E3"/>
			</linearGradient>
			<path class="st13" d="M374.6,358.3l-8.2-30c-0.4-1.5,0.5-3.1,2-3.5l30-8.2c1.5-0.4,3.1,0.5,3.5,2l8.2,30c0.4,1.5-0.5,3.1-2,3.5
				l-30,8.2C376.5,360.7,375,359.8,374.6,358.3z"/>
			
				<linearGradient id="SVGID_14_" gradientUnits="userSpaceOnUse" x1="90.383" y1="-1881.4685" x2="127.2279" y2="-1881.4685" gradientTransform="matrix(0.2623 0.965 0.965 -0.2623 1872.8274 -200.9565)">
				<stop  offset="0" style="stop-color:#F69B31"/>
				<stop  offset="1" style="stop-color:#D461A1"/>
			</linearGradient>
			<path class="st14" d="M72.1,417.4l-8.2-30c-0.4-1.5,0.5-3.1,2-3.5l30-8.2c1.5-0.4,3.1,0.5,3.5,2l8.2,30c0.4,1.5-0.5,3.1-2,3.5
				l-30,8.2C74.1,419.8,72.5,418.9,72.1,417.4z"/>
		</g>
	</g>
</g>
</svg>
